<!-- icon666.com - MILLIONS OF FREE VECTOR ICONS --><svg id="Layer_3" viewBox="0 0 64 64" xmlns="http://www.w3.org/2000/svg" data-name="Layer 3"><path d="m10.378 47.843h2.243v9.314h-2.243z" transform="matrix(.707 -.707 .707 .707 -33.755 23.508)" fill="#000000" style="fill: rgb(242, 7, 7);"></path><path d="m4.364 53.05a4.657 4.657 0 1 0 6.585 6.586l1.637-1.636-6.586-6.586z" fill="#000000" style="fill: rgb(242, 7, 7);"></path><path d="m11 41.586v-.586a1 1 0 0 1 .293-.707l1.293-1.293-3.586-3.586-.232.232a2.622 2.622 0 0 0 0 3.708z" fill="#000000" style="fill: rgb(242, 7, 7);"></path><path d="m19.879 37.636h2.243v10.728h-2.243z" transform="matrix(.707 -.707 .707 .707 -24.255 27.444)" fill="#000000" style="fill: rgb(242, 7, 7);"></path><path d="m58.464 3a2.52 2.52 0 0 0 -1.793.743l-35.257 35.257 3.586 3.586 35.257-35.257a2.536 2.536 0 0 0 -1.793-4.329z" fill="#000000" style="fill: rgb(242, 7, 7);"></path><path d="m23.707 52.707a1 1 0 0 1 -.707.293h-.586l2.232 2.232a2.684 2.684 0 0 0 3.708 0l.232-.232-3.586-3.586z" fill="#000000" style="fill: rgb(242, 7, 7);"></path><path d="m23.586 50-9.586-9.586-1 1v2.586a1 1 0 0 1 -.293.707l-2.293 2.293 6.586 6.586 2.293-2.293a1 1 0 0 1 .707-.293h2.586z" fill="#000000" style="fill: rgb(242, 7, 7);"></path></svg>